<svg width="88" height="84" viewBox="0 0 88 84" fill="none" xmlns="http://www.w3.org/2000/svg">
<path d="M0.102275 52.3636C0.0340931 48.5909 0.647729 45.5568 1.94318 43.2614C3.23864 40.9659 4.92046 39.2955 6.98864 38.25C9.07955 37.2045 11.2841 36.6818 13.6023 36.6818C15.9205 36.6818 18.0341 37.1932 19.9432 38.2159C21.875 39.2159 24.0795 40.7955 26.5568 42.9545C28.2386 44.4091 29.5795 45.4318 30.5795 46.0227C31.6023 46.6136 32.7159 46.9091 33.9205 46.9091C35.875 46.9091 37.4205 46.2045 38.5568 44.7955C39.6932 43.3636 40.2386 41.2955 40.1932 38.5909H47.5568C47.625 42.3636 47.0114 45.3977 45.7159 47.6932C44.4432 49.9886 42.7614 51.6591 40.6705 52.7045C38.5795 53.75 36.375 54.2727 34.0568 54.2727C31.7386 54.2727 29.625 53.7727 27.7159 52.7727C25.8068 51.75 23.6023 50.1591 21.1023 48C19.4432 46.5455 18.1023 45.5227 17.0795 44.9318C16.0568 44.3409 14.9432 44.0455 13.7386 44.0455C11.8977 44.0455 10.375 44.6932 9.17046 45.9886C7.98864 47.2614 7.42046 49.3864 7.46591 52.3636H0.102275ZM87.5199 -1.90735e-06L65.0199 83.5909H57.6563L80.1563 -1.90735e-06H87.5199Z" fill="#4A6CF7"/>
</svg>
